<svg id="Layer_1" data-name="Layer 1" xmlns="http://www.w3.org/2000/svg" viewBox="0 0 662.41 264.84"><defs><style>.cls-1{fill:#2e2d2c;}.cls-2{fill:#fff;}.cls-3{fill:#d0d0d0;}.cls-4{fill:#e61a67;}.cls-5{fill:#ffdf5e;}</style></defs><path class="cls-1" d="M647.38,334.15a5,5,0,0,0-1-4.84c-5.69-7.25-11.22-14.61-17-21.82q-27.79-35.06-55.67-70-17.28-21.73-34.39-43.61a2.75,2.75,0,0,0-2.73-1.31,125.89,125.89,0,0,1-24.93-.61c-9.34-1.12-18.68-2.49-28-4-11.81-1.86-23.59-3.9-35.55-4.8a132.76,132.76,0,0,0-31.8,1.09,95.87,95.87,0,0,0-41.22,17.45c-3.23,2.36-6.3,4.95-9.5,7.48-.09-.08-.19-.12-.23-.19-.34-.47-.65-.95-1-1.43a57.74,57.74,0,0,0-16.87-16.3c-9.58-6-20.17-8.5-31.29-9a116.26,116.26,0,0,0-32.48,2.89c-8.8,2.08-17.51,4.64-26.13,7.4-26.24,8.39-51.72,18.84-77.06,29.62a3.48,3.48,0,0,0-1.09.71,56.87,56.87,0,0,0-4.83,5q-8.18,10.37-16.15,20.91c-.78,1-1.48,1.47-2.74,1.1a13.83,13.83,0,0,0-2.64-.34c-2.12-.17-3,.44-3.32,2.53a6.33,6.33,0,0,0,0,2c.47,3.53,1,7.05,1.5,10.56,1.28,8.94,2.52,17.87,3.85,26.79,1.44,9.72,2.95,19.41,4.44,29.12s2.93,19.24,4.39,28.86c1.39,9.23,2.81,18.45,4.16,27.68,1.31,9,2.45,18,3.86,26.93,1.73,11,3.66,22,5.54,33,.56,3.32,1.25,6.62,1.89,10,.33-.09.54-.13.75-.2l17.78-5.6c34-10.62,68.09-20.56,102.85-28.25,8.2-1.81,16.42-3.54,24.69-4.89,8.52-1.4,17.08-2.43,25.66-3.32C359.08,403.87,367,403,375,403c10.32-.06,20.64.78,31,1.05a142.41,142.41,0,0,0,15.6-.32c6.86-.58,13.3-3,19.67-5.55,5.81-2.32,11.6-4.72,17.51-6.75,8.8-3,18-3.39,27.16-3.25,12.61.19,25.2.72,37.8.74,24.84,0,49.7-.33,74.55-.24,14.2.05,28.39.69,42.59,1.06.88,0,1.76,0,2.59,0,.4-2.66.83-5.21,1.15-7.76a2.06,2.06,0,0,0-.52-1.48c-1.77-1.76-3.64-3.42-5.39-5.19a2.14,2.14,0,0,1-.5-1.58c.27-1.94.6-3.86,1.05-5.77C641.88,356.66,644.54,345.39,647.38,334.15ZM189.12,424.21c-.49-2.85-1-5.71-1.44-8.58-1.77-10.88-3.56-21.75-5.28-32.63-1.59-10.09-3.11-20.21-4.65-30.31q-2.49-16.28-5-32.55c-1.47-9.71-2.91-19.42-4.39-29.13C167,281.47,165.46,272,164,262.43c-.37-2.37-.77-4.74-1.11-7.12a1.92,1.92,0,0,1,.26-1.23q7.65-10.44,15.37-20.83a21.66,21.66,0,0,1,1.5-1.61c.62,3.53,1.2,6.74,1.76,10q3,17.53,6.07,35.06t6,35.08q2.75,16,5.5,32.05T204.78,376c.75,4.42,1.53,8.85,2.27,13.27a2.92,2.92,0,0,1-.17,1.66q-8.65,16.54-17.34,33C189.48,424.08,189.44,424.2,189.12,424.21Zm235.16-63.63c-5.2,4.69-9.11,10.21-10.4,17.26a37.28,37.28,0,0,0,.84,16c.14.58.27,1.18.44,2l-9.26-1a246.79,246.79,0,0,0-34.37-1.93,257.26,257.26,0,0,0-41.3,4.83c-20.26,3.83-40.26,8.76-60.15,14.14-25.71,7-51.36,14.19-77,21.29-.41.11-.83.2-1.48.36.31-.67.51-1.15.76-1.6,6.24-11.52,12.63-23,18.66-34.62a11.07,11.07,0,0,1,7.61-6.17c22.6-6.32,44.61-14.39,66.71-22.21q22.67-8,45.5-15.5a121,121,0,0,1,24.93-5.66,212.37,212.37,0,0,1,32.79-1.26,125.49,125.49,0,0,1,40.21,8.63c.41.16.81.36,1.33.58C428.09,357.32,426.14,358.9,424.28,360.58Zm-3.12-14.32a115.59,115.59,0,0,0-27.93-5.43,194.67,194.67,0,0,0-36.92,1c-21.48,2.37-42.11,8.09-62.25,15.69-14.7,5.55-29.29,11.4-44,17-11.94,4.6-24,8.74-36.53,12.24-10-53.27-18.49-106.64-27.23-160.06,4-1.81,7.88-3.59,11.79-5.39,15.39-7.14,30.84-14.14,46.68-20.26,12.06-4.68,24.23-9,36.89-11.79,11.6-2.57,23.32-4.09,35.22-3.37,12.47.77,24.06,4.11,34,12a52.46,52.46,0,0,1,11.66,13.11c.5.79.53,1.86,1,2.71q27.61,56.2,55.29,112.39c3.76,7.62,7.85,15.05,11.79,22.56.23.43.43.85.67,1.32C427.86,348.77,424.55,347.39,421.16,346.26Zm-24.77-76.81c-9.15-18.86-18.48-37.64-27.73-56.45-.11-.23-.2-.48-.33-.76a112.37,112.37,0,0,1,15.1-11.46,91.7,91.7,0,0,1,37.17-13.45,129.36,129.36,0,0,1,24.26-.69c12.95.72,25.68,3.06,38.46,5.06,10.36,1.61,20.75,3.19,31.17,4.24,6.71.67,13.51.37,20.29.42a3.16,3.16,0,0,1,2.87,1.31q29.7,37.28,59.48,74.48c14.35,17.92,28.51,36,41.93,54.64.58.82,1.07,1.7,1.54,2.44-4.49,0-8.94.23-13.35,0-8.08-.5-16.15-1.18-24.21-2-7.26-.72-14.48-1.73-21.73-2.54s-14.32-1.56-21.49-2.28A284.57,284.57,0,0,0,530.48,321c-18.08.09-35.8,2.49-52.91,8.61a134.81,134.81,0,0,0-38,21.07l-1.14.86c-1.68-3-3.34-5.85-5-8.74C420.22,318.82,408.35,294.11,396.39,269.45Zm240.26,76q-3.37,13.71-6.61,27.45c-.22.93-.55,1.1-1.41,1.06q-21.35-1.09-42.68-2.13c-16-.77-31.93-1.64-47.9-2.28-13.93-.55-27.87-.8-41.79,0-11.62.64-23.13,2-34.21,5.83a64.24,64.24,0,0,0-21.95,12.83c-.25.23-.51.43-.76.65,3.3-4.73,5.49-9.86,5.6-15.67a17.88,17.88,0,0,0-7-14.95c2.69-2.27,5.2-4.59,7.93-6.63,10.29-7.76,22-12.64,34.25-16.25a188.67,188.67,0,0,1,31.33-6.24,193.31,193.31,0,0,1,29.44-1.51c7.2.25,14.4.84,21.57,1.51,8.28.78,16.54,1.8,24.8,2.75,7.55.85,15.09,1.94,22.67,2.53,9.32.72,18.66,1,28,1.49.39,0,.78,0,1.33,0C638.39,339.13,637.44,342.26,636.65,345.44Z" transform="translate(-101.88 -182.11)"/><path class="cls-2" d="M640.6,329.23c-4.49,0-8.94.23-13.35,0-8.08-.5-16.15-1.18-24.21-2-7.26-.72-14.48-1.73-21.73-2.54s-14.32-1.56-21.49-2.28A284.57,284.57,0,0,0,530.48,321c-18.08.09-35.8,2.49-52.91,8.61a134.81,134.81,0,0,0-38,21.07l-1.14.86c-1.68-3-3.34-5.85-5-8.74-13.3-24-25.17-48.7-37.13-73.36-9.15-18.86-18.48-37.64-27.73-56.45-.11-.23-.2-.48-.33-.76a112.37,112.37,0,0,1,15.1-11.46,91.7,91.7,0,0,1,37.17-13.45,129.36,129.36,0,0,1,24.26-.69c12.95.72,25.68,3.06,38.46,5.06,10.36,1.61,20.75,3.19,31.17,4.24,6.71.67,13.51.37,20.29.42a3.16,3.16,0,0,1,2.87,1.31q29.7,37.28,59.48,74.48c14.35,17.92,28.51,36,41.93,54.64C639.64,327.61,640.13,328.49,640.6,329.23Z" transform="translate(-101.88 -182.11)"/><path class="cls-3" d="M639.3,335.84c-.91,3.29-1.86,6.42-2.65,9.6q-3.37,13.71-6.61,27.45c-.22.93-.55,1.1-1.41,1.06q-21.35-1.09-42.68-2.13c-16-.77-31.93-1.64-47.9-2.28-13.93-.55-27.87-.8-41.79,0-11.62.64-23.13,2-34.21,5.83a64.24,64.24,0,0,0-21.95,12.83c-.25.23-.51.43-.76.65,3.3-4.73,5.49-9.86,5.6-15.67a17.88,17.88,0,0,0-7-14.95c2.69-2.27,5.2-4.59,7.93-6.63,10.29-7.76,22-12.64,34.25-16.25a188.67,188.67,0,0,1,31.33-6.24,193.31,193.31,0,0,1,29.44-1.51c7.2.25,14.4.84,21.57,1.51,8.28.78,16.54,1.8,24.8,2.75,7.55.85,15.09,1.94,22.67,2.53,9.32.72,18.66,1,28,1.49C638.36,335.86,638.75,335.84,639.3,335.84Z" transform="translate(-101.88 -182.11)"/><path class="cls-3" d="M430.07,355.63c-2,1.69-3.93,3.27-5.79,4.95-5.2,4.69-9.11,10.21-10.4,17.26a37.28,37.28,0,0,0,.84,16c.14.58.27,1.18.44,2l-9.26-1a246.79,246.79,0,0,0-34.37-1.93,257.26,257.26,0,0,0-41.3,4.83c-20.26,3.83-40.26,8.76-60.15,14.14-25.71,7-51.36,14.19-77,21.29-.41.11-.83.2-1.48.36.31-.67.51-1.15.76-1.6,6.24-11.52,12.63-23,18.66-34.62a11.07,11.07,0,0,1,7.61-6.17c22.6-6.32,44.61-14.39,66.71-22.21q22.67-8,45.5-15.5a121,121,0,0,1,24.93-5.66,212.37,212.37,0,0,1,32.79-1.26,125.49,125.49,0,0,1,40.21,8.63C429.15,355.21,429.55,355.41,430.07,355.63Z" transform="translate(-101.88 -182.11)"/><path class="cls-3" d="M206.88,390.91q-8.65,16.54-17.34,33c-.06.12-.1.24-.42.25-.49-2.85-1-5.71-1.44-8.58-1.77-10.88-3.56-21.75-5.28-32.63-1.59-10.09-3.11-20.21-4.65-30.31q-2.49-16.28-5-32.55c-1.47-9.71-2.91-19.42-4.39-29.13C167,281.47,165.46,272,164,262.43c-.37-2.37-.77-4.74-1.11-7.12a1.92,1.92,0,0,1,.26-1.23q7.65-10.44,15.37-20.83a21.66,21.66,0,0,1,1.5-1.61c.62,3.53,1.2,6.74,1.76,10q3,17.53,6.07,35.06t6,35.08q2.75,16,5.5,32.05T204.78,376c.75,4.42,1.53,8.85,2.27,13.27A2.92,2.92,0,0,1,206.88,390.91Z" transform="translate(-101.88 -182.11)"/><path class="cls-2" d="M431.3,350.07c-3.44-1.3-6.75-2.68-10.14-3.81a115.59,115.59,0,0,0-27.93-5.43,194.67,194.67,0,0,0-36.92,1c-21.48,2.37-42.11,8.09-62.25,15.69-14.7,5.55-29.29,11.4-44,17-11.94,4.6-24,8.74-36.53,12.24-10-53.27-18.49-106.64-27.23-160.06,4-1.81,7.88-3.59,11.79-5.39,15.39-7.14,30.84-14.14,46.68-20.26,12.06-4.68,24.23-9,36.89-11.79,11.6-2.57,23.32-4.09,35.22-3.37,12.47.77,24.06,4.11,34,12a52.46,52.46,0,0,1,11.66,13.11c.5.79.53,1.86,1,2.71q27.61,56.2,55.29,112.39c3.76,7.62,7.85,15.05,11.79,22.56C430.86,349.18,431.06,349.6,431.3,350.07Z" transform="translate(-101.88 -182.11)"/><path class="cls-4" d="M135.78,410.72c-11.61,0-20.16-3.48-25.41-10.35s-6.35-16.1-3.3-27.48l14.07-52.53c3.12-11.64,9-20.66,17.39-26.81a48.5,48.5,0,0,1,29.24-9.21c11.36,0,19.87,3.3,25.29,9.8s6.65,16,3.43,28l-2.87,10.71a3.5,3.5,0,0,1-3.38,2.59H163.61a3.5,3.5,0,0,1-3.38-4.4l3.49-13c.36-1.33.63-2.5.8-3.47a5.5,5.5,0,0,0,0-1.94.67.67,0,0,0-.31-.46h0a4.05,4.05,0,0,0-1.94-.29,6.23,6.23,0,0,0-2.94.59,5.29,5.29,0,0,0-1.84,1.58,9.37,9.37,0,0,0-1.27,2.31c-.34,1-.7,2.13-1.06,3.49L139.83,377c-.29,1.07-.51,2.09-.68,3a6.81,6.81,0,0,0,0,2.21.89.89,0,0,0,.34.65h0a3.74,3.74,0,0,0,1.81.27,5.78,5.78,0,0,0,2.88-.62,5.67,5.67,0,0,0,1.93-1.77,11.32,11.32,0,0,0,1.36-2.53c.35-1,.67-2,.95-3.05l4.53-16.93a3.5,3.5,0,0,1,3.38-2.59H183a3.49,3.49,0,0,1,3.38,4.4l-3.92,14.62c-2.95,11-8.69,19.89-17.06,26.32S147,410.72,135.78,410.72Z" transform="translate(-101.88 -182.11)"/><path class="cls-5" d="M167.77,287.84q15.48,0,22.6,8.54t2.74,24.89L190.24,332H163.61l3.49-13c.39-1.45.68-2.7.87-3.76a8.94,8.94,0,0,0,0-3.18,4.19,4.19,0,0,0-1.62-2.61,6.69,6.69,0,0,0-4.07-1,9.61,9.61,0,0,0-4.61,1,8.9,8.9,0,0,0-3,2.61,12.75,12.75,0,0,0-1.72,3.18c-.38,1.06-.77,2.31-1.16,3.76l-15.31,57.16c-.31,1.16-.56,2.26-.75,3.33a10.25,10.25,0,0,0,0,3.32,4.35,4.35,0,0,0,1.56,2.82,6.2,6.2,0,0,0,4,1.09,9.09,9.09,0,0,0,4.63-1.09,9.24,9.24,0,0,0,3.07-2.82,14.72,14.72,0,0,0,1.76-3.32c.38-1.07.73-2.17,1-3.33l4.53-16.93H183L179,373.79q-4.14,15.49-15.81,24.46t-27.44,9q-15.77,0-22.63-9t-2.7-24.46l14.07-52.52q4.38-16.35,16.07-24.89a44.9,44.9,0,0,1,27.18-8.54M183,359.18h0m-15.18-78.34a51.89,51.89,0,0,0-31.3,9.89c-9.09,6.63-15.38,16.29-18.71,28.73L103.68,372c-3.34,12.48-2,22.75,3.91,30.52s15.43,11.72,28.19,11.72a50.75,50.75,0,0,0,31.71-10.43c9-6.91,15.14-16.39,18.3-28.19l3.86-14.38a7.24,7.24,0,0,0,.3-2,7,7,0,0,0-7-7H156.32a7,7,0,0,0-6.76,5.19L145,374.3c-.26.95-.55,1.88-.87,2.78a7.73,7.73,0,0,1-.95,1.73,1.85,1.85,0,0,1-.31.37c.09-.41.2-.83.31-1.26l15.32-57.16c.33-1.26.66-2.33,1-3.2a5.82,5.82,0,0,1,.81-1.45,1.4,1.4,0,0,1,.39-.37c-.11.44-.23.9-.36,1.4l-3.49,13a7,7,0,0,0,6.76,8.81h26.63a7,7,0,0,0,6.76-5.18l2.87-10.71c3.53-13.17,2.14-23.66-4.12-31.18-6.12-7.34-15.53-11.06-28-11.06Z" transform="translate(-101.88 -182.11)"/><path class="cls-4" d="M218.33,408.84a3.5,3.5,0,0,1-3.38-4.41l16.94-63.23a15.37,15.37,0,0,0,.66-4.4l-.56,0a2.25,2.25,0,0,0-1.43.37,5,5,0,0,0-1.37,1.4,11.19,11.19,0,0,0-1.06,2.1c-.3.81-.56,1.6-.76,2.36l-17,63.23a3.5,3.5,0,0,1-3.38,2.6H182.16a3.5,3.5,0,0,1-3.38-4.41l31-115.61a3.51,3.51,0,0,1,3.38-2.6H238a3.5,3.5,0,0,1,3.38,4.41l-5.62,21c.69-.44,1.38-.83,2.06-1.19a27.66,27.66,0,0,1,12.86-2.93c8.74,0,12.83,4,14.72,7.36,2.55,4.52,2.93,10.2,1.15,16.87l-20,74.52a3.51,3.51,0,0,1-3.38,2.6Z" transform="translate(-101.88 -182.11)"/><path class="cls-5" d="M238,289.72l-8.49,31.69h.29a34.26,34.26,0,0,1,9.64-7.88A24,24,0,0,1,250.7,311q8.54,0,11.67,5.58t.82,14.25l-20,74.52H218.33l16.94-63.24a16.56,16.56,0,0,0,.7-6.36q-.36-2.46-4-2.46a5.83,5.83,0,0,0-3.45,1,8.55,8.55,0,0,0-2.3,2.39,14.22,14.22,0,0,0-1.39,2.75c-.34.91-.63,1.81-.86,2.67l-17,63.24H182.16l31-115.62H238m0-7H213.13a7,7,0,0,0-6.76,5.19l-31,115.61a7,7,0,0,0,6.77,8.82H207a7,7,0,0,0,5.65-2.86l.09.12a7,7,0,0,0,5.55,2.74h24.89a7,7,0,0,0,6.76-5.19l20-74.52c2-7.59,1.53-14.15-1.48-19.5C266.12,309,261.13,304,250.7,304a33.19,33.19,0,0,0-9.62,1.36l3.7-13.81a7,7,0,0,0-6.76-8.82Zm0,14h0Z" transform="translate(-101.88 -182.11)"/><path class="cls-4" d="M284.53,410.72c-6.35,0-11.63-.93-15.69-2.77a20.25,20.25,0,0,1-9.32-7.75,20.94,20.94,0,0,1-3-10.07A33.94,33.94,0,0,1,257.68,380l11.67-43.56a41.59,41.59,0,0,1,4.16-9.95,37,37,0,0,1,7.75-9.28,38.33,38.33,0,0,1,12.29-7,48.79,48.79,0,0,1,16.76-2.68c6.36,0,11.64.94,15.69,2.78a20.26,20.26,0,0,1,9.33,7.74,20.89,20.89,0,0,1,3,10.07,34.14,34.14,0,0,1-1.18,10.15l-6.82,25.47a3.5,3.5,0,0,1-3.39,2.59H293.48l-4.62,17.24a12.2,12.2,0,0,0-.5,3.08,7.34,7.34,0,0,0,.75,0,3.49,3.49,0,0,0,2.42-.59,13.28,13.28,0,0,0,1.85-4.34l3.11-11.57a3.5,3.5,0,0,1,3.38-2.6h24.88a3.51,3.51,0,0,1,3.39,4.41l-2.64,9.84a41.76,41.76,0,0,1-4.16,9.95,37.25,37.25,0,0,1-7.75,9.28,38.69,38.69,0,0,1-12.3,7A49,49,0,0,1,284.53,410.72ZM304,342.22l2-7.53a13.17,13.17,0,0,0,.52-3.09c-.2,0-.45,0-.77,0-.71,0-2,.08-2.4.65a12.45,12.45,0,0,0-1.88,4.28l-1.53,5.72Z" transform="translate(-101.88 -182.11)"/><path class="cls-5" d="M310.31,311c5.89,0,10.64.83,14.25,2.46a16.83,16.83,0,0,1,7.77,6.37,17.34,17.34,0,0,1,2.53,8.39,30.65,30.65,0,0,1-1.07,9.12L327,362.8H290.79l-5.31,19.82a11.78,11.78,0,0,0-.46,5.5q.47,2,4.09,2t5.24-2a16.59,16.59,0,0,0,2.42-5.5l3.1-11.58h24.89l-2.64,9.84A38.06,38.06,0,0,1,318.3,390a33.39,33.39,0,0,1-7,8.39,34.87,34.87,0,0,1-11.19,6.37,45.25,45.25,0,0,1-15.56,2.46q-8.82,0-14.24-2.46a16.75,16.75,0,0,1-7.78-6.37A17.32,17.32,0,0,1,260,390a30.33,30.33,0,0,1,1.07-9.12l11.67-43.55a37.62,37.62,0,0,1,3.81-9.12,33.23,33.23,0,0,1,7-8.39,34.89,34.89,0,0,1,11.18-6.37A45.49,45.49,0,0,1,310.31,311m-14.94,34.73h11.28l2.72-10.13a12.87,12.87,0,0,0,.53-5.5c-.27-1.35-1.65-2-4.16-2s-4.14.67-5.17,2a15.72,15.72,0,0,0-2.49,5.5l-2.71,10.13M324.76,371h0M310.31,304a52.29,52.29,0,0,0-18,2.89,42,42,0,0,0-13.4,7.68,40.53,40.53,0,0,0-8.48,10.17,44.85,44.85,0,0,0-4.5,10.79L254.3,379.07a37.65,37.65,0,0,0-1.31,11.2A24.26,24.26,0,0,0,256.52,402a23.62,23.62,0,0,0,10.87,9.13c4.58,2.08,10.19,3.09,17.14,3.09a52.21,52.21,0,0,0,18-2.89,42,42,0,0,0,13.41-7.68,40.41,40.41,0,0,0,8.47-10.16,45.46,45.46,0,0,0,4.51-10.8l2.57-9.61a6.93,6.93,0,0,0-.23-4.73,6.94,6.94,0,0,0,2.51-3.74l6.82-25.47a37.83,37.83,0,0,0,1.3-11.19,24.36,24.36,0,0,0-3.52-11.74,23.72,23.72,0,0,0-10.87-9.13C322.87,305,317.27,304,310.31,304Z" transform="translate(-101.88 -182.11)"/><path class="cls-4" d="M356.88,410.72c-6.36,0-11.64-.93-15.69-2.77a20.28,20.28,0,0,1-9.33-7.75,20.82,20.82,0,0,1-3-10.07A34.26,34.26,0,0,1,330,380l11.67-43.56a42,42,0,0,1,4.17-9.95,37,37,0,0,1,7.75-9.28,38.33,38.33,0,0,1,12.29-7,48.79,48.79,0,0,1,16.76-2.68c6.36,0,11.64.94,15.69,2.78a20.32,20.32,0,0,1,9.33,7.74,21,21,0,0,1,3,10.07,34.18,34.18,0,0,1-1.18,10.15l-2.64,9.84a3.51,3.51,0,0,1-3.38,2.6H378.61a3.51,3.51,0,0,1-3.38-4.41l3.1-11.57a13.91,13.91,0,0,0,.53-3.09c-.2,0-.45,0-.77,0-.71,0-2,.08-2.4.65a12.45,12.45,0,0,0-1.88,4.28l-12.6,47a12.2,12.2,0,0,0-.5,3.08,7.26,7.26,0,0,0,.74,0,3.51,3.51,0,0,0,2.43-.59,13.28,13.28,0,0,0,1.85-4.34l4.46-16.64a3.5,3.5,0,0,1,3.38-2.59h24.89a3.49,3.49,0,0,1,3.38,4.4l-4,14.91a42,42,0,0,1-4.17,9.95,37,37,0,0,1-7.74,9.28,38.69,38.69,0,0,1-12.3,7A49,49,0,0,1,356.88,410.72Z" transform="translate(-101.88 -182.11)"/><path class="cls-5" d="M382.66,311c5.88,0,10.63.83,14.25,2.46a16.83,16.83,0,0,1,7.77,6.37,17.22,17.22,0,0,1,2.52,8.39,30.64,30.64,0,0,1-1.06,9.12l-2.64,9.84H378.61l3.1-11.58a12.9,12.9,0,0,0,.54-5.5q-.4-2-4.16-2c-2.42,0-4.14.67-5.18,2a15.9,15.9,0,0,0-2.48,5.5l-12.6,47a11.78,11.78,0,0,0-.46,5.5q.47,2,4.08,2,3.76,0,5.25-2a16.6,16.6,0,0,0,2.41-5.5L373.57,366h24.89l-4,14.9a38.06,38.06,0,0,1-3.82,9.12,33.23,33.23,0,0,1-7,8.39,34.71,34.71,0,0,1-11.18,6.37,45.25,45.25,0,0,1-15.56,2.46c-5.89,0-10.63-.82-14.25-2.46a16.77,16.77,0,0,1-7.77-6.37,17.22,17.22,0,0,1-2.52-8.39,30.64,30.64,0,0,1,1.06-9.12l11.67-43.55a38.06,38.06,0,0,1,3.82-9.12,33.23,33.23,0,0,1,7-8.39,34.89,34.89,0,0,1,11.18-6.37A45.49,45.49,0,0,1,382.66,311m15.8,55h0m-15.8-62a52.25,52.25,0,0,0-18,2.89,42,42,0,0,0-13.41,7.68,40.49,40.49,0,0,0-8.47,10.17,44.89,44.89,0,0,0-4.51,10.79l-11.67,43.55a38,38,0,0,0-1.3,11.2A24.26,24.26,0,0,0,328.87,402a23.62,23.62,0,0,0,10.87,9.13c4.58,2.08,10.18,3.09,17.14,3.09a52.25,52.25,0,0,0,18-2.89,41.79,41.79,0,0,0,13.4-7.68,40.32,40.32,0,0,0,8.48-10.17,45.06,45.06,0,0,0,4.51-10.79L405.16,368a6.9,6.9,0,0,0,.3-2,7,7,0,0,0-7-7H373.57a7,7,0,0,0-2.26.37l2-7.58a7,7,0,0,0,5.27,2.4H403.5a7,7,0,0,0,6.76-5.19l2.64-9.84a37.89,37.89,0,0,0,1.3-11.2,24.26,24.26,0,0,0-3.53-11.73,23.62,23.62,0,0,0-10.87-9.13C395.22,305,389.62,304,382.66,304Z" transform="translate(-101.88 -182.11)"/><path class="cls-4" d="M438.85,408.84a3.5,3.5,0,0,1-3.5-3.47l-.24-27.67-7.64,28.54a3.51,3.51,0,0,1-3.38,2.6H399.2a3.5,3.5,0,0,1-3.38-4.41l31-115.61a3.5,3.5,0,0,1,3.38-2.6h24.89a3.51,3.51,0,0,1,3.38,4.41L447,333.19l13.14-22.1a3.51,3.51,0,0,1,3-1.72h25.46a3.5,3.5,0,0,1,3,5.36l-24.77,39.63,1,50.91a3.5,3.5,0,0,1-3.5,3.57Z" transform="translate(-101.88 -182.11)"/><path class="cls-5" d="M455.07,289.72l-31,115.62H399.2l31-115.62h24.89m33.58,23.15-25.32,40.52,1,51.95H438.85l-.43-50.79,24.77-41.68h25.46m-33.58-30.15H430.18a7,7,0,0,0-6.76,5.19l-31,115.61a7,7,0,0,0,6.76,8.82h24.89a7,7,0,0,0,6.76-5.19l1-3.67,0,1.91a7,7,0,0,0,7,6.95h25.46a7,7,0,0,0,7-7.14l-.94-49.86,24.22-38.75a7,7,0,0,0-5.94-10.72H463.19a7,7,0,0,0-6,3.43l-.19.31,4.85-18.07a7,7,0,0,0-6.76-8.82Zm0,14Zm33.58,23.15h0Z" transform="translate(-101.88 -182.11)"/><path class="cls-4" d="M509.75,408.84a3.5,3.5,0,0,1-3.38-4.41L531.14,312a3.5,3.5,0,0,1,2.71-2.53,3.9,3.9,0,0,1-.48-.51,3.52,3.52,0,0,1-.6-3l4.57-17.07a3.51,3.51,0,0,1,3.39-2.6h24.88a3.5,3.5,0,0,1,3.38,4.41l-4.57,17.07a3.5,3.5,0,0,1-2.71,2.53,5.79,5.79,0,0,1,.48.51,3.52,3.52,0,0,1,.6,3L538,406.24a3.51,3.51,0,0,1-3.38,2.6Z" transform="translate(-101.88 -182.11)"/><path class="cls-5" d="M565.61,289.72,561,306.8H536.15l4.58-17.08h24.88m-6.2,23.15-24.77,92.47H509.75l24.77-92.47h24.89m6.2-30.15H540.73a7,7,0,0,0-6.77,5.19L529.39,305a6.93,6.93,0,0,0-.09,3.23,7,7,0,0,0-1.54,2.84L503,403.52a7,7,0,0,0,6.76,8.82h24.89a7,7,0,0,0,6.76-5.19l24.77-92.46a7.07,7.07,0,0,0,.1-3.23,7,7,0,0,0,1.53-2.85l4.58-17.07a7,7,0,0,0-6.77-8.82Zm0,14h0Zm-6.2,23.15h0Z" transform="translate(-101.88 -182.11)"/><path class="cls-4" d="M568.71,410.72a43.76,43.76,0,0,1-8.4-.72,15.66,15.66,0,0,1-6.88-3.11,11.26,11.26,0,0,1-3.94-7.2,24,24,0,0,1,.91-10L565,335.33H563.3a3.51,3.51,0,0,1-3.38-4.41L564.73,313a3.5,3.5,0,0,1,3.38-2.59h3.54l4.69-17.52a3.51,3.51,0,0,1,3.38-2.6h24.89a3.5,3.5,0,0,1,3.38,4.41l-4.21,15.71h1.66a3.49,3.49,0,0,1,3.38,4.4L604,332.74a3.5,3.5,0,0,1-3.39,2.59H597.1l-12.57,46.89a21.12,21.12,0,0,0-.55,2.69h1.78a3.51,3.51,0,0,1,3.39,4.4l-5,18.81a3.52,3.52,0,0,1-3.39,2.6Z" transform="translate(-101.88 -182.11)"/><path class="cls-5" d="M604.61,293.77h0m0,0-5.39,20.12h6.22l-4.81,17.94h-6.22l-13.26,49.49a19.48,19.48,0,0,0-.76,5,1.9,1.9,0,0,0,2.19,2.1h3.18l-5,18.81h-12a39.84,39.84,0,0,1-7.71-.65,12.18,12.18,0,0,1-5.36-2.39,7.92,7.92,0,0,1-2.7-5.07,20.85,20.85,0,0,1,.84-8.53l15.74-58.75H563.3l4.81-17.94h6.22l5.39-20.12h24.89m.83,20.12h0m-19.69,74.52h0m18.84-101.64H579.72A7,7,0,0,0,573,292l-4,14.93h-.85a7,7,0,0,0-6.76,5.19L556.54,330a7,7,0,0,0,4,8.25L547,388.77a27.36,27.36,0,0,0-1,11.5,14.85,14.85,0,0,0,5.19,9.34,19.05,19.05,0,0,0,8.39,3.82,46,46,0,0,0,9.09.79h12a7,7,0,0,0,6.77-5.19l5-18.58a6.9,6.9,0,0,0,.31-2,7,7,0,0,0-4.52-6.55l11.53-43h.85a7,7,0,0,0,6.77-5.19l4.74-17.71a6.9,6.9,0,0,0,.3-2,7,7,0,0,0-4.25-6.44l3.12-11.63a7,7,0,0,0-6.7-9.05Zm0,14Z" transform="translate(-101.88 -182.11)"/><path class="cls-4" d="M630.86,408.84a3.5,3.5,0,0,1-3.38-4.41l7.13-26.62a3.51,3.51,0,0,1,3.38-2.6h6.16a3.4,3.4,0,0,1-1.45-1,3.45,3.45,0,0,1-.86-2.73l4.43-37.05a4.21,4.21,0,0,1,.09-.49l12.1-45.14a3.5,3.5,0,0,1,3.38-2.6h24a3.51,3.51,0,0,1,3.38,4.41l-12.1,45.14a3.26,3.26,0,0,1-.15.44l-15.42,37.05a3.49,3.49,0,0,1-2.07,1.95H662a3.5,3.5,0,0,1,3.38,4.41l-7.13,26.62a3.51,3.51,0,0,1-3.38,2.6Z" transform="translate(-101.88 -182.11)"/><path class="cls-5" d="M685.86,289.72l-12.1,45.15-15.42,37h-13l4.43-37,12.1-45.15h24m-23.85,89-7.13,26.63h-24L638,378.71h24m23.85-96h-24a7,7,0,0,0-6.76,5.19L643,333.06a6.52,6.52,0,0,0-.19,1l-4.43,37c0,.21,0,.42,0,.63H638a7,7,0,0,0-6.76,5.19l-7.13,26.62a7,7,0,0,0,6.76,8.82h24a7,7,0,0,0,6.76-5.19l7.13-26.63a7,7,0,0,0-1.2-6.07,7.17,7.17,0,0,0-2-1.75l14.63-35.14a7,7,0,0,0,.3-.88l12.1-45.14a7,7,0,0,0-6.76-8.82Zm0,14Zm-23.85,89h0Z" transform="translate(-101.88 -182.11)"/><path class="cls-4" d="M679.19,408.84a3.5,3.5,0,0,1-3.38-4.41l7.13-26.62a3.51,3.51,0,0,1,3.38-2.6h6.16a3.44,3.44,0,0,1-1.46-1,3.48,3.48,0,0,1-.85-2.73l4.42-37.05a4.26,4.26,0,0,1,.1-.49l12.09-45.14a3.51,3.51,0,0,1,3.39-2.6h24a3.51,3.51,0,0,1,3.39,4.41l-12.1,45.14a3.26,3.26,0,0,1-.15.44L709.9,373.26a3.49,3.49,0,0,1-2.07,1.95h2.51a3.5,3.5,0,0,1,3.38,4.41l-7.13,26.62a3.51,3.51,0,0,1-3.38,2.6Z" transform="translate(-101.88 -182.11)"/><path class="cls-5" d="M734.18,289.72l-12.09,45.15-15.43,37h-13l4.43-37,12.1-45.15h24m-23.84,89-7.13,26.63h-24l7.13-26.63h24m23.84-96h-24a7,7,0,0,0-6.77,5.19l-12.09,45.15a6.52,6.52,0,0,0-.19,1l-4.43,37c0,.21,0,.42,0,.63h-.33a7,7,0,0,0-6.76,5.19l-7.13,26.62a7,7,0,0,0,6.76,8.82h24a7,7,0,0,0,6.76-5.19l7.13-26.63a7,7,0,0,0-3.18-7.82l14.63-35.14a7,7,0,0,0,.3-.88L741,291.54a7,7,0,0,0-6.77-8.82Zm0,14h0Zm-23.84,89h0Z" transform="translate(-101.88 -182.11)"/><path class="cls-4" d="M636.68,269.43a2.48,2.48,0,0,1-2-1,2.52,2.52,0,0,1-.43-2.17l2-7.31h-33a2.49,2.49,0,0,1-2.42-3.14l2.14-8c0-.08,0-.16.07-.23h-4a2.51,2.51,0,0,1-1.91-4.12l14.09-16.65.32-1.18h-5.32a2.49,2.49,0,0,1-2-1,2.52,2.52,0,0,1-.43-2.17l2.12-7.92a2.49,2.49,0,0,1,2.42-1.86h1.83a2.67,2.67,0,0,1,.08-.48l2.12-7.92a2.51,2.51,0,0,1,2.42-1.86H635a2.51,2.51,0,0,1,2,1,2.56,2.56,0,0,1,.51,1.71l.31-1.16a2.49,2.49,0,0,1,2.41-1.85h10.46a2.56,2.56,0,0,1,1.49.49,2.51,2.51,0,0,1,1.49-.49h10.4a2.5,2.5,0,0,1,2.41,3.15l-11.07,41.3a2.5,2.5,0,0,1-.91,1.35,2.36,2.36,0,0,1,0,1.18l-4.94,18.45a2.49,2.49,0,0,1-2.41,1.85ZM616.09,246a1.68,1.68,0,0,1-.09-.32l-.75-3.33L612.47,246Zm13.11-9.74L632,225.66h-4.82l-.6,2.25Z" transform="translate(-101.88 -182.11)"/><path class="cls-5" d="M664.09,204.65h0m0,0L653,246H642.63l4.43-16.56h-3L639.64,246H629.18l11.07-41.3h10.46l-4.49,16.75h3l4.49-16.75h10.4m-13.38,0h0M635,205l-2.12,7.93h-20.2l2.13-7.93H635m1,10.26-2.13,7.93h-8.57L624,228l5.35,17.15H618.44l-1.93-8.57L610,245.11H599.08L613.53,228l1.31-4.87h-8.58l2.13-7.93H636m16.09,33.26-4.94,18.44H636.68l2.8-10.46H603.25l2.14-8h46.69m12-48.84h-10.4a5,5,0,0,0-1.49.23,4.89,4.89,0,0,0-1.49-.23H640.25A5,5,0,0,1,635,200H614.84a5,5,0,0,0-4.83,3.71l-1.76,6.56a5,5,0,0,0-4.69,3.7l-2.13,7.92a5,5,0,0,0,4.83,6.3h.61l-11.6,13.72a5,5,0,0,0,3.81,8.23h.7l-1.36,5.07a5,5,0,0,0,4.83,6.29H633l-1.12,4.16a5,5,0,0,0,4.83,6.3h10.46a5,5,0,0,0,4.83-3.71l4.94-18.44a4.48,4.48,0,0,0,.15-.89,4.8,4.8,0,0,0,.79-1.64l11-41.13a5.08,5.08,0,0,0,.22-1.47,5,5,0,0,0-5-5Zm0,10Zm-12,43.84Z" transform="translate(-101.88 -182.11)"/><path class="cls-4" d="M694.14,269.49a2.52,2.52,0,0,1-1.76-.72l-8.53-8.46-13.62,8.78a2.48,2.48,0,0,1-1.35.4H655.43a2.5,2.5,0,0,1-1.37-4.59l24.59-16.16,1.22-4.56c-.59,0-1.18,0-1.76,0-3.69,0-10.4-.66-13.81-5.12-1.35-1.75-2.69-4.83-1.43-9.52l3.88-14.48c2.64-9.84,12.79-13.35,21.4-13.35,4.33,0,10.17.85,13.46,4.89a10.12,10.12,0,0,1,2.21,6.54l2.47-9.19a2.49,2.49,0,0,1,2.41-1.85h10.46a2.48,2.48,0,0,1,2,1,2.51,2.51,0,0,1,.43,2.17l-10,37.47a2.49,2.49,0,0,1-2.41,1.85H698.66a2.48,2.48,0,0,1-2-1,2.45,2.45,0,0,1-.43-2.17l1.84-6.87a17.35,17.35,0,0,1-8.16,7.23h2.94a2.5,2.5,0,0,1,2.42,3.15l-1.23,4.59,15.31,15.68a2.49,2.49,0,0,1-1.79,4.24Zm-15.95-38.16a7,7,0,0,0,2,.17c2.66,0,3.67-.27,4.47-3.27l3.15-11.76a5.2,5.2,0,0,0,.26-1.8,6.58,6.58,0,0,0-2-.18c-2.56,0-3.63.12-4.48,3.27l-3.15,11.76A5.49,5.49,0,0,0,678.19,231.33Z" transform="translate(-101.88 -182.11)"/><path class="cls-5" d="M688.15,204.26c7.54,0,14.69,2.86,12.9,11.49l-3.88,14.49c-2.31,8.63-11.52,11.49-19.06,11.49s-15.14-2.86-12.83-11.49l3.88-14.49c2.32-8.63,11.46-11.49,19-11.49m-8,29.74c3.19,0,5.66-.52,6.9-5.13l3.15-11.75c1.23-4.61-1-5.13-4.15-5.13s-5.66.52-6.89,5.13L676,228.87c-1.24,4.61.9,5.13,4.14,5.13m39-29.35-10,37.47H698.66l10-37.47h10.46m-26.29,39.68-1.6,6L707.58,267H694.14l-9.95-9.87L668.88,267H655.43l25.39-16.69,1.6-6h10.45m-4.72-45.07c-9.54,0-20.81,4-23.82,15.2l-3.88,14.48c-1.52,5.68.17,9.5,1.86,11.7,2.8,3.65,7.85,5.77,14.3,6.06l-.13.47-23.79,15.65a5,5,0,0,0,2.74,9.17h13.45a5,5,0,0,0,2.71-.79l11.93-7.7,7.1,7a5,5,0,0,0,3.52,1.45h13.44a5,5,0,0,0,3.58-8.49l-14.32-14.65.51-1.9a5.17,5.17,0,0,0,1.31.17h10.46a5,5,0,0,0,4.83-3.71l10-37.47a5,5,0,0,0-4.83-6.29H708.7a5,5,0,0,0-4.83,3.7l-.42,1.6c-3.12-3.72-8.4-5.69-15.3-5.69Zm31,10.39Zm-34.63,7.44a3.77,3.77,0,0,1,.55-.07l-2.83,10.56a4.59,4.59,0,0,1-.51,1.31,2.48,2.48,0,0,1-.55.08L684,218.41a4.65,4.65,0,0,1,.51-1.32Z" transform="translate(-101.88 -182.11)"/><path class="cls-4" d="M712.13,269.23a2.49,2.49,0,0,1-2.41-3.14l2.75-10.26a2.49,2.49,0,0,1,2.41-1.86h11.63a2.48,2.48,0,0,1,2,1,2.52,2.52,0,0,1,.43,2.17l-2.75,10.26a2.49,2.49,0,0,1-2.41,1.85Zm5-16.56a2.49,2.49,0,0,1-2.42-3.14L726.94,204a2.49,2.49,0,0,1,2.41-1.85h10.46a2.51,2.51,0,0,1,2.42,3.15L730,250.82a2.51,2.51,0,0,1-2.42,1.85Z" transform="translate(-101.88 -182.11)"/><path class="cls-5" d="M739.81,204.65l-12.2,45.52H717.16l12.19-45.52h10.46m-13.3,51.82-2.75,10.26H712.13l2.75-10.26h11.63m13.3-56.82H729.35a5,5,0,0,0-4.83,3.7l-12.19,45.53a5,5,0,0,0,.2,3.18,5,5,0,0,0-2.48,3.12l-2.74,10.26a5,5,0,0,0,4.82,6.29h11.63a5,5,0,0,0,4.83-3.7l2.75-10.26a5,5,0,0,0-.49-3.78,5,5,0,0,0,1.59-2.52l12.2-45.53a5,5,0,0,0-4.83-6.29Zm0,10h0Zm-13.3,51.82Z" transform="translate(-101.88 -182.11)"/><path class="cls-4" d="M731.62,269.23a2.49,2.49,0,0,1-2.42-3.14L732,255.83a2.49,2.49,0,0,1,2.42-1.86H746a2.51,2.51,0,0,1,2.42,3.15l-2.75,10.26a2.51,2.51,0,0,1-2.42,1.85Zm5-16.56a2.49,2.49,0,0,1-2.42-3.14L746.42,204a2.5,2.5,0,0,1,2.42-1.85h10.45a2.5,2.5,0,0,1,2.42,3.15l-12.2,45.52a2.5,2.5,0,0,1-2.42,1.85Z" transform="translate(-101.88 -182.11)"/><path class="cls-5" d="M759.29,204.65l-12.2,45.52H736.64l12.2-45.52h10.45M746,256.47l-2.75,10.26H731.62l2.75-10.26H746m13.3-56.82H748.84a5,5,0,0,0-4.83,3.7l-12.2,45.53a5,5,0,0,0,.2,3.18,5,5,0,0,0-2.47,3.12l-2.75,10.26a5,5,0,0,0,4.83,6.29h11.62a5,5,0,0,0,4.83-3.7l2.75-10.26a5,5,0,0,0-.49-3.78,5,5,0,0,0,1.59-2.52l12.2-45.53a5,5,0,0,0-4.83-6.29Zm0,10h0ZM746,261.47h0Z" transform="translate(-101.88 -182.11)"/><path class="cls-4" d="M275.5,269.28c-6.07,0-10-3.54-10-9s4.1-9.22,10-9.22h1.35v-.18h-9.06a2.5,2.5,0,0,1-2.5-2.5v-5.26a2.5,2.5,0,0,1,2.5-2.5H286.4a39.46,39.46,0,0,0,.92-6.55h-18.5a2.5,2.5,0,0,1-2.5-2.5v-5.22a2.49,2.49,0,0,1,2.5-2.5h27.9a2.49,2.49,0,0,1,2.5,2.5v6.41a48,48,0,0,1-.88,7.93,2.5,2.5,0,0,1,1.9,2.43v5.26a2.49,2.49,0,0,1-2.5,2.5h-9.05v.18h1.44c5.92,0,9.9,3.7,9.9,9.22s-3.89,9-9.9,9Z" transform="translate(-101.88 -182.11)"/><path class="cls-5" d="M296.72,226.35v6.41a42.84,42.84,0,0,1-1.2,9h-6.8a40.88,40.88,0,0,0,1.11-8.39v-1.79h-21v-5.22h27.9m1,16.77v5.26H286.19v4.19h-6.84v-4.19H267.79v-5.26h29.95m-7.61,10.44c4.58,0,7.4,2.69,7.4,6.72s-2.74,6.5-7.4,6.5H275.5c-4.67,0-7.49-2.4-7.49-6.5s2.91-6.72,7.49-6.72h14.63m-13.82,8h12.92a1.39,1.39,0,1,0,0-2.78H276.31a1.4,1.4,0,1,0,0,2.78m20.41-40.21h-27.9a5,5,0,0,0-5,5v5.22a5,5,0,0,0,5,5h15.77c-.07.52-.16,1-.25,1.55H267.79a5,5,0,0,0-5,5v5.26a5,5,0,0,0,2.8,4.49,11.44,11.44,0,0,0-2.58,7.41c0,6.88,5,11.5,12.49,11.5h14.63c7.42,0,12.4-4.62,12.4-11.5a11.57,11.57,0,0,0-2.52-7.44,5,5,0,0,0,2.73-4.46v-5.26a5,5,0,0,0-1.63-3.7,48.47,48.47,0,0,0,.61-6.66v-6.41a5,5,0,0,0-5-5Z" transform="translate(-101.88 -182.11)"/><path class="cls-4" d="M303.69,269.28a2.5,2.5,0,0,1-2.5-2.5V252.53a2.24,2.24,0,0,1,.13-.78,2.49,2.49,0,0,1-.94-2v-5.22a2.5,2.5,0,0,1,2.5-2.5h18.51a43,43,0,0,0,1-8H303.9a2.5,2.5,0,0,1-2.5-2.5v-5.22a2.49,2.49,0,0,1,2.5-2.5h27.9a2.49,2.49,0,0,1,2.5,2.5v6.84a56.36,56.36,0,0,1-1,8.92,2.5,2.5,0,0,1,2.06,2.46v5.22a2.49,2.49,0,0,1-.94,2,2.61,2.61,0,0,1,.12.79v14.25a2.49,2.49,0,0,1-2.5,2.5Z" transform="translate(-101.88 -182.11)"/><path class="cls-5" d="M331.8,226.35v6.84a52,52,0,0,1-1.24,9.59H323.8a45.38,45.38,0,0,0,1.11-9.08v-2.13h-21v-5.22h27.9m1,18.22v5.22H302.88v-5.22h29.95m-.82,8v14.25H303.69V252.53H332m-21.43,9h14.55v-3.77H310.58v3.77m21.22-40.21H303.9a5,5,0,0,0-5,5v5.22a5,5,0,0,0,5,5h15.85q-.15,1.41-.42,3H302.88a5,5,0,0,0-5,5v5.22a5,5,0,0,0,.81,2.74h0v14.25a5,5,0,0,0,5,5H332a5,5,0,0,0,5-5V252.53h0a5,5,0,0,0,.82-2.74v-5.22a5,5,0,0,0-1.77-3.81,57.87,57.87,0,0,0,.74-7.57v-6.84a5,5,0,0,0-5-5Z" transform="translate(-101.88 -182.11)"/><path class="cls-4" d="M341.38,269.24a2.5,2.5,0,0,1-2.5-2.5v-11a2.51,2.51,0,0,1,.72-1.76,7.35,7.35,0,0,1-2.56-5.86v-3.81a7.6,7.6,0,0,1,1.58-4.86h-1.09a2.49,2.49,0,0,1-2.5-2.5v-4.83a2.5,2.5,0,0,1,2.5-2.5h2.34v-3.79a2.5,2.5,0,0,1,2.5-2.5H357.3a2.5,2.5,0,0,1,2.5,2.5v3.79h.95V225.7a2.5,2.5,0,0,1,2.5-2.5h6.84a2.5,2.5,0,0,1,2.5,2.5v8.71l2.87-.62a2.48,2.48,0,0,1,.54-.06,2.49,2.49,0,0,1,2.5,2.5v5.6a2.5,2.5,0,0,1-2,2.45l-3.94.85v9.45a2.5,2.5,0,0,1-.2,1,2.49,2.49,0,0,1,1,2v5.73a2.5,2.5,0,0,1-1.53,2.31C371.51,265.77,362.94,269.24,341.38,269.24Zm9.39-10.31a73,73,0,0,0,13-1.85h-.48a2.49,2.49,0,0,1-2.5-2.5v-1.24c-1.69,1.81-4.73,3.16-10,3.3Zm-1.84-12c.34,0,.73,0,.92,0s.61,0,.93,0v-1.43h-1.85Z" transform="translate(-101.88 -182.11)"/><path class="cls-5" d="M370.09,225.7v11.81l5.91-1.28v5.6l-5.91,1.29v11.46h-6.84V225.7h6.84m-12.79.09v4.79H342.37v-4.79H357.3m4.45,6.29v4.83H337.53v-4.83h24.22m-11.9,6.12c5,0,10.32,1,10.32,6.07v3.81c0,5.09-5.27,6.08-10.32,6.08s-10.31-1-10.31-6.08v-3.81c0-5.05,5.26-6.07,10.31-6.07m0,11.21c2,0,3.43,0,3.43-2v-2c0-2.4-1.42-2.44-3.43-2.44s-3.42,0-3.42,2.44v2c0,1.92,1.41,2,3.42,2m-1.58,6.29v5.82a70.72,70.72,0,0,0,22.63-3.94v5.73s-8.21,3.43-29.52,3.43v-11h6.89m21.82-35h-6.84a5,5,0,0,0-3,1,5,5,0,0,0-2.91-.94H342.37a5,5,0,0,0-5,5v1.29a5,5,0,0,0-4.84,5v4.83a5,5,0,0,0,2.44,4.3,11.05,11.05,0,0,0-.43,3.06v3.81a10.13,10.13,0,0,0,2,6.25,5.15,5.15,0,0,0-.19,1.37v11a5,5,0,0,0,5,5c21.68,0,30.51-3.42,31.45-3.81a5,5,0,0,0,3.07-4.62v-5.73a5,5,0,0,0-.81-2.74v-7.69l2-.43a5,5,0,0,0,3.94-4.89v-5.6a5,5,0,0,0-1.87-3.89,4.93,4.93,0,0,0-3.13-1.11,5.5,5.5,0,0,0-.91.08V225.7a5,5,0,0,0-5-5Z" transform="translate(-101.88 -182.11)"/><path class="cls-4" d="M420.45,269.24a2.5,2.5,0,0,1-2.5-2.5v-4.39H396.57a2.5,2.5,0,0,1-2.5-2.5v-5h-2.25a2.5,2.5,0,0,1-2.16-3.75l6.17-10.67v0h-3.15a2.5,2.5,0,0,1-2.5-2.5v-5.22a2.5,2.5,0,0,1,2.44-2.5v-4.26a2.5,2.5,0,0,1,2.5-2.5h13.31a2.49,2.49,0,0,0,3.38-.22h6.88a2.51,2.51,0,0,1,1,.21,2.46,2.46,0,0,1,1-.21h6.85a2.5,2.5,0,0,1,2.5,2.5v27.22a2.54,2.54,0,0,1-.24,1.07,2.88,2.88,0,0,1,.07.59v12.16a2.5,2.5,0,0,1-2.5,2.5Zm-11.14-26.11V240.4h-1.59Z" transform="translate(-101.88 -182.11)"/><path class="cls-5" d="M427.51,225.7v27.22h-6.85V242h-2v10.91h-6.88V225.7h6.88v11h2v-11h6.85m-19.08.22v5.22H395.12v-5.22h13.31m2.43,6.76v5.22h-5.64v3.16l6.54,11.3h-7.19l-2.78-5.65L399,252.36h-7.19l6.51-11.25V237.9h-5.65v-5.22h18.18m16.48,21.9v12.16h-6.89v-6.89H396.57v-5.27h30.77m.17-33.88h-6.85a4.9,4.9,0,0,1-2,0h-6.88a5.06,5.06,0,0,0-2,.41,5.3,5.3,0,0,0-1.39-.19H395.12a5,5,0,0,0-5,5v2.46a5,5,0,0,0-2.44,4.3v5.22a5,5,0,0,0,3.91,4.88l-4.09,7.08a5,5,0,0,0,4.07,7.49v2.5a5,5,0,0,0,5,5h18.88v1.89a5,5,0,0,0,5,5h6.89a5,5,0,0,0,5-5V254.58c0-.11,0-.21,0-.32a5.41,5.41,0,0,0,.18-1.34V225.7a5,5,0,0,0-5-5Z" transform="translate(-101.88 -182.11)"/><path class="cls-4" d="M471.27,269.28a2.53,2.53,0,0,1-1.47-.48l-6.4-4.66L457,268.8a2.51,2.51,0,0,1-1.47.48h-9.41a2.51,2.51,0,0,1-1.51-4.5l5.23-3.93h-1a2.5,2.5,0,0,1-2.5-2.5v-4.26h-.11a2.5,2.5,0,0,1-2-4l7.22-9.7h-4a2.5,2.5,0,0,1-2.5-2.5v-5.22a2.5,2.5,0,0,1,2.44-2.5v-4.26a2.5,2.5,0,0,1,2.5-2.5h16.6a2.5,2.5,0,0,0,4.66-.22H478a2.5,2.5,0,0,1,2.5,2.5v7l2.4-.53a2.48,2.48,0,0,1,2.1.49,2.51,2.51,0,0,1,.94,1.95v5.56a2.49,2.49,0,0,1-2,2.44l-3.47.77v8.52a2.74,2.74,0,0,1-.08.64,2.67,2.67,0,0,1,.08.64v5.22a2.5,2.5,0,0,1-2.5,2.5H476.9l5.21,3.93a2.51,2.51,0,0,1-1.51,4.5Zm-12.61-18.65-.54-.72-.55.72Zm9.94-5.2v-5h-3.75Z" transform="translate(-101.88 -182.11)"/><path class="cls-5" d="M478,225.7v10.06l5.44-1.2v5.56l-5.44,1.2v10.53H471.1V225.7H478m-11.55.22v5.22h-16.6v-5.22h16.6m2.4,6.76v5.22h-7.28v2.27l8.52,11.42H462.5l-4.36-5.82-4.45,5.82H446.2l8.47-11.38V237.9H447.4v-5.22h21.44M478,253.13v5.22h-8.56l11.17,8.43h-9.33l-7.87-5.73-7.87,5.73h-9.41l11.21-8.43h-8.52v-5.22H478m0-32.43H471.1a5,5,0,0,1-4.66.22h-16.6a5,5,0,0,0-5,5v2.46a5,5,0,0,0-2.44,4.3v5.22a5,5,0,0,0,4.1,4.92l-4.31,5.78a5,5,0,0,0,1.62,7.38v2.37a4.94,4.94,0,0,0,1.08,3.1l-1.78,1.33a5,5,0,0,0,3,9h9.41a5,5,0,0,0,2.94-1l4.93-3.59,4.93,3.59a5,5,0,0,0,2.94,1h9.33a5,5,0,0,0,3-9l-1.72-1.31a5,5,0,0,0,1.1-3.13v-5.22a4.49,4.49,0,0,0,0-.64,4.58,4.58,0,0,0,0-.64v-6.51l1.51-.33a5,5,0,0,0,3.93-4.89v-5.56a5,5,0,0,0-5-5l-.44,0V225.7a5,5,0,0,0-5-5Z" transform="translate(-101.88 -182.11)"/><path class="cls-4" d="M486.93,269.32a2.5,2.5,0,0,1-2.5-2.5V255.23a2.6,2.6,0,0,1,.06-.56,2.53,2.53,0,0,1-.06-.56V249a2.47,2.47,0,0,1-.81-1.84v-5.22a2.5,2.5,0,0,1,2.06-2.46,8.94,8.94,0,0,1-2.06-5.93c0-5.59,4.2-9.64,10-9.64h15c5.79,0,10,4.05,10,9.64a8.86,8.86,0,0,1-2.13,5.94,2.5,2.5,0,0,1,2,2.45v5.22a2.47,2.47,0,0,1-.81,1.84v11.47c0,.1,0,.2,0,.3a2.41,2.41,0,0,1,.15.85v5.22a2.5,2.5,0,0,1-2.5,2.5Z" transform="translate(-101.88 -182.11)"/><path class="cls-5" d="M508.58,226.39c4.67,0,7.49,3.17,7.49,7.14s-3,6.68-7.49,6.68h-15c-4.67,0-7.49-2.65-7.49-6.68s2.82-7.14,7.49-7.14h15m-14.16,8.73h13.35c2.31,0,2.31-3.64,0-3.64H494.42c-2.22,0-2.14,3.64,0,3.64m21.52,6.8v5.22H486.12v-5.22h29.82m-.81,6.93v11.6H493.82v1.15h21.44v5.22H486.93V255.23h21.31v-1.12H486.93v-5.26h28.2m-6.55-27.46h-15c-7.24,0-12.49,5.11-12.49,12.14a12,12,0,0,0,1.14,5.22,5,5,0,0,0-1.14,3.17v5.22a5,5,0,0,0,.81,2.73v4.24a5.24,5.24,0,0,1,0,1.12v11.59a5,5,0,0,0,5,5h28.33a5,5,0,0,0,5-5V261.6a5.22,5.22,0,0,0-.13-1.13v-10.6a5,5,0,0,0,.81-2.73v-5.22a5,5,0,0,0-1.08-3.11,11.72,11.72,0,0,0,1.21-5.28c0-7-5.25-12.14-12.49-12.14Z" transform="translate(-101.88 -182.11)"/><path class="cls-4" d="M538.4,269.24a2.5,2.5,0,0,1-2.5-2.5v-13.1a2.63,2.63,0,0,1,.05-.49H535a2.5,2.5,0,0,1-2.5-2.5v-24.3a2.49,2.49,0,0,1,2.5-2.5h9.71a2.15,2.15,0,0,1,.45,0,2.28,2.28,0,0,1,.45,0h9.16a2.49,2.49,0,0,1,1.67-.65h6.24a2.27,2.27,0,0,1,.75.12,2.36,2.36,0,0,1,.75-.12h6.33a2.49,2.49,0,0,1,2.5,2.5v27.64a2.48,2.48,0,0,1-1.34,2.22l.19.13a2.49,2.49,0,0,1,1,2v5.65a2.51,2.51,0,0,1-1.74,2.38C570.72,265.88,559.94,269.24,538.4,269.24Zm9.34-16.09a2.63,2.63,0,0,1,0,.49v5.3a96.38,96.38,0,0,0,20-3.1H564.2a2.67,2.67,0,0,1-.75-.11,2.56,2.56,0,0,1-.75.11h-6.24a2.49,2.49,0,0,1-2.5-2.5v-.19Z" transform="translate(-101.88 -182.11)"/><path class="cls-5" d="M570.54,225.7v27.64H564.2V241.28h-1.5v12.06h-6.24V225.7h6.24v10.36h1.5V225.7h6.34m-15.11.65v5.22h-3.34v13.82h3.51v5.26h-10v-24.3h9.8m-10.7,0v5.22h-3.25v13.82h3.25v5.26H535v-24.3h9.71m.56,27.29v7.88a96.36,96.36,0,0,0,25.12-3.81v5.65s-10.61,3.38-32,3.38v-13.1h6.89m25.25-32.94H564.2a4.74,4.74,0,0,0-.75.06,4.56,4.56,0,0,0-.75-.06h-6.24a5,5,0,0,0-2.45.65h-8.38a3.39,3.39,0,0,0-.45,0,3.24,3.24,0,0,0-.45,0H535a5,5,0,0,0-5,5v24.3a5,5,0,0,0,3.38,4.73v11.36a5,5,0,0,0,5,5c21.92,0,33.06-3.47,33.52-3.62a5,5,0,0,0,3.49-4.76v-5.65a5.1,5.1,0,0,0-.44-2,5,5,0,0,0,.57-2.32V225.7a5,5,0,0,0-5-5Zm-20.25,35H552a4.25,4.25,0,0,0,.27.46c-.65.07-1.32.13-2,.18v-.64Z" transform="translate(-101.88 -182.11)"/><path class="cls-4" d="M574.85,269.49a2.5,2.5,0,0,1-2.25-3.58l4.45-9.28a2.49,2.49,0,0,1,2.25-1.42H587a2.5,2.5,0,0,1,2.26,3.58l-4.45,9.28a2.5,2.5,0,0,1-2.25,1.42Z" transform="translate(-101.88 -182.11)"/><path class="cls-5" d="M587,257.71,582.55,267h-7.7l4.45-9.28H587m0-5h-7.7a5,5,0,0,0-4.51,2.84l-4.44,9.28a5,5,0,0,0,4.5,7.16h7.7a5,5,0,0,0,4.51-2.84l4.45-9.28a5,5,0,0,0-4.51-7.16Zm0,10h0Z" transform="translate(-101.88 -182.11)"/></svg>